<svg clip-rule="evenodd" fill-rule="evenodd" stroke-linejoin="round" stroke-miterlimit="2" viewBox="0 0 64 64" xmlns="http://www.w3.org/2000/svg"><g transform="translate(-848 -328)"><path d="m868.025 356.772c-1.03.753-1.638 1.952-1.638 3.228s.608 2.475 1.638 3.228c6.825 4.994 27.616 20.207 35.613 26.058 1.216.89 2.828 1.021 4.172.339 1.343-.681 2.19-2.06 2.19-3.567 0-10.879 0-41.237 0-52.116 0-1.507-.847-2.886-2.19-3.567-1.344-.682-2.956-.551-4.172.339z"/><path d="m850 334v52c0 2.209 1.791 4 4 4h5c2.209 0 4-1.791 4-4v-52c0-2.209-1.791-4-4-4-1.488 0-3.512 0-5 0-2.209 0-4 1.791-4 4z"/></g></svg>