<?xml version="1.0" encoding="iso-8859-1"?>
<!-- Generator: Adobe Illustrator 16.0.0, SVG Export Plug-In . SVG Version: 6.00 Build 0)  -->
<!DOCTYPE svg PUBLIC "-//W3C//DTD SVG 1.1//EN" "http://www.w3.org/Graphics/SVG/1.1/DTD/svg11.dtd">
<svg version="1.1" id="Capa_1" xmlns="http://www.w3.org/2000/svg" xmlns:xlink="http://www.w3.org/1999/xlink" x="0px" y="0px"
	 width="418px" height="418px" viewBox="0 0 418 418" style="enable-background:new 0 0 418 418;" xml:space="preserve">
<g>
	<g>
		<g>
			<path d="M133.57,274.297c3.146,3.146,7.877,4.087,11.988,2.385c4.11-1.703,6.79-5.714,6.79-10.162V151.481
				c0-4.449-2.68-8.46-6.79-10.163c-1.361-0.563-2.79-0.837-4.208-0.837c-2.862,0-5.676,1.117-7.78,3.222l-57.519,57.519
				c-2.063,2.063-3.223,4.861-3.223,7.778s1.16,5.716,3.223,7.777L133.57,274.297z"/>
			<path d="M272.444,276.682c4.107,1.7,8.84,0.765,11.986-2.385l57.521-57.52c2.062-2.063,3.221-4.86,3.221-7.777
				s-1.157-5.716-3.221-7.778l-57.521-57.519c-2.104-2.104-4.918-3.222-7.779-3.222c-1.416,0-2.848,0.273-4.207,0.837
				c-4.111,1.703-6.791,5.714-6.791,10.163v115.037C265.653,270.968,268.333,274.979,272.444,276.682z"/>
			<path d="M212,0h-6c-6.075,0-11,4.925-11,11v35c0,6.075,4.925,11,11,11h6c6.075,0,11-4.925,11-11V11C223,4.925,218.076,0,212,0z"
				/>
			<path d="M212,95.352h-6c-6.075,0-11,4.925-11,11v72.473c0,6.075,4.925,11,11,11h6c6.075,0,11-4.925,11-11v-72.473
				C223,100.276,218.076,95.352,212,95.352z"/>
			<path d="M212,228.176h-6c-6.075,0-11,4.926-11,11v72.474c0,6.075,4.925,11,11,11h6c6.075,0,11-4.925,11-11v-72.474
				C223,233.102,218.076,228.176,212,228.176z"/>
			<path d="M212,361h-6c-6.075,0-11,4.925-11,11v35c0,6.075,4.925,11,11,11h6c6.075,0,11-4.925,11-11v-35
				C223,365.925,218.076,361,212,361z"/>
		</g>
	</g>
</g>
<g>
</g>
<g>
</g>
<g>
</g>
<g>
</g>
<g>
</g>
<g>
</g>
<g>
</g>
<g>
</g>
<g>
</g>
<g>
</g>
<g>
</g>
<g>
</g>
<g>
</g>
<g>
</g>
<g>
</g>
</svg>
