<svg id="Layer_1" height="512" viewBox="0 0 32 32" width="512" xmlns="http://www.w3.org/2000/svg" data-name="Layer 1"><path d="m27 5.9905a1 1 0 0 1 -.707-1.6975l3-3a1 1 0 0 1 1.414 1.414l-3 3a.9977.9977 0 0 1 -.707.2835z"/><path d="m29.9287 11h-1.9287a1 1 0 0 1 0-2h1.9287a1 1 0 0 1 0 2z"/><path d="m22 5a1 1 0 0 1 -1-1v-1.9287a1 1 0 0 1 2 0v1.9287a1 1 0 0 1 -1 1z"/><path d="m30 18.993a.9947.9947 0 0 1 -.707-.286l-3-3a1 1 0 0 1 1.414-1.414l3 3a1.0043 1.0043 0 0 1 -.707 1.7z"/><path d="m17 5.9941a.9939.9939 0 0 1 -.707-.2871l-3-3a1 1 0 0 1 1.414-1.414l3 3a1.0047 1.0047 0 0 1 -.707 1.7011z"/><path d="m23.3662 8.6343a2.1333 2.1333 0 0 0 -2.293-.49l-18.6855 7.1179a2.1559 2.1559 0 0 0 .1484 4.08l7.7061 2.312a.1551.1551 0 0 1 .1045.104l2.3115 7.7061a2.129 2.129 0 0 0 1.9863 1.5346 2.1654 2.1654 0 0 0 2.0938-1.3867l7.1181-18.686a2.13 2.13 0 0 0 -.4902-2.2919z"/></svg>