<svg enable-background="new 0 0 512 512" viewBox="0 0 512 512" xmlns="http://www.w3.org/2000/svg"><g id="_x34_9_Video_Editing_Timeline"><g><path d="m484.791 188.011c11.657 0 21.167-9.51 21.167-21.167v-47.894c0-11.705-9.51-21.167-21.167-21.167h-88.571c-3.365 0-6.097 2.731-6.097 6.097 0 3.365 2.732 6.097 6.097 6.097h88.571c4.975 0 8.974 3.999 8.974 8.974v47.895c0 4.926-3.999 8.974-8.974 8.974h-203.771v-34.97l30.093-27.508c.975-.878 1.512-2.097 1.756-3.365h28.776c3.365 0 6.097-2.731 6.097-6.097 0-3.365-2.732-6.097-6.097-6.097h-28.581v-71.11c0-11.413-9.217-20.631-20.631-20.631h-35.018c-11.364 0-20.631 9.218-20.631 20.631v71.11h-209.575c-11.657 0-21.168 9.462-21.168 21.167v47.895c0 11.657 9.51 21.167 21.168 21.167h241.618v39.457h-34.287c-11.706 0-21.168 9.511-21.168 21.167v47.894c0 11.657 9.462 21.167 21.168 21.167h34.287v35.165h-241.618c-11.657 0-21.168 9.51-21.168 21.167v47.895c0 11.705 9.51 21.167 21.168 21.167h241.618v56.771c0 3.365 2.731 6.097 6.097 6.097s6.097-2.731 6.097-6.097v-56.771h30.58c11.706 0 21.167-9.462 21.167-21.167v-47.895c0-11.657-9.462-21.167-21.167-21.167h-30.58v-35.165h203.771c11.657 0 21.167-9.511 21.167-21.167v-47.894c0-11.656-9.51-21.167-21.167-21.167h-203.772v-39.457h203.771zm-215.964-12.193h-241.618c-4.926 0-8.975-4.048-8.975-8.974v-47.894c0-4.975 4.048-8.974 8.975-8.974h209.819c.243 1.268.78 2.487 1.755 3.365l30.044 27.508zm42.774 189.237c4.975 0 8.974 4.048 8.974 8.974v47.895c0 4.975-3.999 8.974-8.974 8.974h-30.58v-65.843zm-36.239-235.522c-.146-.049-.243-.097-.439-.097-.146 0-.243.049-.39.097l-25.557-23.362v-79.498c0-4.682 3.804-8.438 8.438-8.438h35.018c4.683 0 8.438 3.756 8.438 8.438v79.499z"/><path d="m484.791 352.862h-73.5c-11.657 0-21.168 9.51-21.168 21.167v47.895c0 11.705 9.51 21.167 21.168 21.167h73.5c11.657 0 21.167-9.462 21.167-21.167v-47.895c0-11.656-9.51-21.167-21.167-21.167zm8.974 69.062c0 4.975-4.048 8.974-8.974 8.974h-73.5c-4.975 0-8.975-3.999-8.975-8.974v-47.895c0-4.926 4-8.974 8.975-8.974h73.5c4.926 0 8.974 4.048 8.974 8.974z"/></g></g><g id="Layer_1"/></svg>