<svg id="Glyph" height="512" viewBox="0 0 64 64" width="512" xmlns="http://www.w3.org/2000/svg"><g fill="rgb(0,0,0)"><path d="m3.58594 53.34277c-.37793.37793-.58594.87989-.58594 1.41407 0 .53516.20801 1.03711.58594 1.41504l4.24268 4.24219c.38965.38965.90186.58496 1.41406.58496s1.02441-.19531 1.41406-.58496l32.17163-32.17163-7.07104-7.07104z"/><path d="m54.36594 15.85758c.00068-.51588-.18587-1.03347-.56663-1.41422l-4.24268-4.24316c-.75586-.75586-2.07227-.75586-2.82813 0l-9.55713 9.55713 7.07104 7.07104s9.5402-9.5402 9.55686-9.55686c.37473-.37471.56599-.89345.56667-1.41393z"/><path d="m60 30c-2.20557 0-4-1.79395-4-4 0-.55273-.44775-1-1-1s-1 .44727-1 1c0 2.20605-1.79443 4-4 4-.55225 0-1 .44727-1 1s.44775 1 1 1c2.20557 0 4 1.79395 4 4 0 .55273.44775 1 1 1s1-.44727 1-1c0-2.20605 1.79443-4 4-4 .55225 0 1-.44727 1-1s-.44775-1-1-1z"/><path d="m40.75732 49c-2.20557 0-4-1.79395-4-4 0-.55273-.44775-1-1-1s-1 .44727-1 1c0 2.20605-1.79443 4-4 4-.55225 0-1 .44727-1 1s.44775 1 1 1c2.20557 0 4 1.79395 4 4 0 .55273.44775 1 1 1s1-.44727 1-1c0-2.20605 1.79443-4 4-4 .55225 0 1-.44727 1-1s-.44775-1-1-1z"/><path d="m13 21c2.20557 0 4 1.79395 4 4 0 .55273.44775 1 1 1s1-.44727 1-1c0-2.20605 1.79443-4 4-4 .55225 0 1-.44727 1-1s-.44775-1-1-1c-2.20557 0-4-1.79395-4-4 0-.55273-.44775-1-1-1s-1 .44727-1 1c0 2.20605-1.79443 4-4 4-.55225 0-1 .44727-1 1s.44775 1 1 1z"/><path d="m48.02181 6.92439c.49989.00547.99967-.30422.99967-.94587 0 0 0-1.99542 0-1.99999 0-1.29174-2-1.29099-2-.00001v1.99997c0 .61952.50022.94043 1.00033.9459z"/><path d="m43.77881 8.15039c.88879.88875 2.33252-.4956 1.41406-1.41406 0 0-1.40857-1.40857-1.41405-1.41405-.89376-.89376-2.32986.49826-1.41408 1.41405.00001 0 1.40672 1.40671 1.41407 1.41406z"/><path d="m51.55651 8.42931c.23835.01917.48765-.05942.70716-.27892 0 0 1.40984-1.40935 1.41454-1.41405.91099-.91067-.4988-2.32932-1.41405-1.41407 0 0-1.40462 1.40414-1.4145 1.41401-.65374.65352-.02503 1.63415.70685 1.69303z"/><path d="m33 10c.55225 0 1-.44727 1-1v-1c0-.55273-.44775-1-1-1s-1 .44727-1 1v1c0 .55273.44775 1 1 1z"/><path d="m35 12h1c.55225 0 1-.44727 1-1s-.44775-1-1-1h-1c-.55225 0-1 .44727-1 1s.44775 1 1 1z"/><path d="m33 12c-.55225 0-1 .44727-1 1v1c0 .55273.44775 1 1 1s1-.44727 1-1v-1c0-.55273-.44775-1-1-1z"/><path d="m30 12h1c.55225 0 1-.44727 1-1s-.44775-1-1-1h-1c-.55225 0-1 .44727-1 1s.44775 1 1 1z"/><path d="m49.46484 42.0498c-.39014-.38965-1.02295-.39063-1.41406-.00098-.39111.39063-.39111 1.02344-.00098 1.41504 0 0 .70649.70746.70703.70801.37673.37725 1.0234.38969 1.41406.00098.39111-.39063.39111-1.02344.00098-1.41504z"/><path d="m52.29248 42.0498-.70703.70801c-.39013.3916-.39014 1.0244.00096 1.41502.38594.38548 1.02929.38383 1.41408-.00096l.70703-.70801c.39014-.3916.39014-1.02441-.00098-1.41504-.39111-.38964-1.02392-.38964-1.41406.00098z"/><path d="m53 45.58594c-.39063-.39063-1.02344-.39063-1.41406 0s-.39063 1.02344 0 1.41406c0 0 .70675.70675.70703.70703.38598.38598 1.02824.38582 1.41406 0 .39063-.39063.39063-1.02344 0-1.41406z"/><path d="m48.75732 45.58594-.70703.70703c-.39061.39061-.39063 1.02338-.00005 1.41401.37303.37309 1.02924.38491 1.41411.00005l.70704-.70703c.39063-.39063.39063-1.02344 0-1.41406s-1.02344-.39063-1.41407 0z"/></g></svg>