<svg id="Layer_1" enable-background="new 0 0 100 100" viewBox="0 0 100 100" xmlns="http://www.w3.org/2000/svg"><path d="m34.9500084 34.950016.0000076-.0000076c2.3472099-2.3472099 2.3472099-6.1527843 0-8.4999924l-11.8500385-11.8500385h6.6896095c3.3194523 0 6.0104008-2.6909485 6.0104008-6.0104017v-.0791722c0-3.3194528-2.6909485-6.0104008-6.0104008-6.0104008h-21.2791843c-3.3194523 0-6.0104012 2.6909482-6.0104012 6.0104008v21.2791834c0 3.3194523 2.6909485 6.0104008 6.0104012 6.0104008h.0791731c3.3194523 0 6.0104008-2.6909485 6.0104008-6.0104008v-6.6896114l11.8500413 11.8500404c2.3472081 2.34721 6.1527844 2.34721 8.4999905 0z"/><path d="m23.0999775 85.4000244 11.8500385-11.8500442c2.3472099-2.3472061 2.3472099-6.1527786 0-8.4999924l-.0000076-.0000076c-2.3472061-2.3472061-6.1527824-2.3472061-8.4999905 0l-11.8500414 11.8500442v-6.6896133c0-3.3194504-2.6909485-6.0103989-6.0104008-6.0103989h-.079173c-3.3194528 0-6.0104012 2.6909485-6.0104012 6.0103989v21.2791824c0 3.319458 2.6909485 6.0104065 6.0104012 6.0104065h21.2791843c3.3194523 0 6.0104008-2.6909485 6.0104008-6.0104065v-.0791702c0-3.3194504-2.6909485-6.0103989-6.0104008-6.0103989z"/><path d="m76.9000244 14.5999775-11.8500442 11.8500385c-2.3472061 2.347208-2.3472061 6.1527824 0 8.4999924l.0000153.0000076c2.3472061 2.3472099 6.1527786 2.3472099 8.4999847 0l11.8500443-11.8500404v6.6896114c0 3.3194523 2.6909485 6.0104008 6.0103989 6.0104008h.0791779c3.3194504 0 6.0103989-2.6909485 6.0103989-6.0104008v-21.2791834c0-3.3194532-2.6909485-6.0104008-6.0103989-6.0104008h-21.2791902c-3.3194504 0-6.0103989 2.6909482-6.0103989 6.0104008v.0791721c0 3.3194532 2.6909485 6.0104017 6.0103989 6.0104017h6.6896133z"/><path d="m91.4896011 64.2000122h-.0791779c-3.3194504 0-6.0103989 2.6909485-6.0103989 6.0103989v6.6896133l-11.8500441-11.8500442c-2.3472061-2.3472061-6.1527786-2.3472061-8.4999847 0l-.0000153.0000076c-2.3472061 2.3472137-2.3472061 6.1527863 0 8.4999924l11.8500443 11.8500443h-6.6896133c-3.3194504 0-6.0103989 2.6909485-6.0103989 6.0103989v.0791702c0 3.319458 2.6909485 6.0104065 6.0103989 6.0104065h21.2791824c3.3194579-.0000001 6.0104064-2.6909486 6.0104064-6.0104066v-21.2791824c0-3.3194504-2.6909485-6.0103989-6.0103989-6.0103989z"/></svg>