<svg clip-rule="evenodd" fill-rule="evenodd" height="512" image-rendering="optimizeQuality" shape-rendering="geometricPrecision" text-rendering="geometricPrecision" viewBox="0 0 43.3492 43.3492" width="512" xmlns="http://www.w3.org/2000/svg"><g id="Layer_x0020_1"><path d="m2.741 29.7346c.4981 0 .9056-.4075.9056-.9056 0-.4981-.4075-.9056-.9056-.9056h-2.741v-12.4976h2.741c.4981 0 .9056-.4075.9056-.9056 0-.4981-.4075-.9056-.9056-.9056v-2.8859h37.8672v2.8859c-.4981 0-.9056.4075-.9056.9056 0 .4981.4075.9056.9056.9056h2.741v12.4976h-2.741c-.4981 0-.9056.4075-.9056.9056 0 .4981.4075.9056.9056.9056v2.8859h-37.8672zm1.5456-11.4048c.3745 0 .6937.9109.816 2.1881h2.0135l.1756-.2259.312-.4014c.1892-.2434.4545-.3731.7627-.3731.3083 0 .5735.1298.7627.3731l.312.4014.1756.2259h2.7411c.1224-1.2772.4415-2.1881.816-2.1881s.6936.9109.816 2.1881h5.4276.0001c.4204-.8188 1.2733-1.379 2.2571-1.379s1.8367.5602 2.2571 1.379h5.4277c.1223-1.2772.4415-2.1881.816-2.1881.3744 0 .6936.9109.816 2.1881h2.7411l.1756-.2259.312-.4014c.1891-.2433.4544-.3731.7626-.3731.3083 0 .5736.1297.7627.3731l.312.4014.1756.2259h2.0135.0001c.1223-1.2772.4415-2.1881.816-2.1881.4801 0 .8694 1.4975.8694 3.3448s-.3893 3.3448-.8694 3.3448c-.3745 0-.6937-.9109-.816-2.1881h-.0001-2.0135l-.1756.2259-.312.4013c-.1891.2434-.4544.3732-.7626.3732-.3083 0-.5736-.1298-.7627-.3731l-.3121-.4014-.1756-.2259h-2.741c-.1224 1.2772-.4416 2.1881-.816 2.1881-.3745 0-.6937-.9109-.816-2.1881h-5.4277c-.4204.8188-1.2733 1.379-2.2571 1.379s-1.8367-.5602-2.2572-1.379h-5.4276c-.1224 1.2772-.4415 2.1881-.816 2.1881s-.6936-.9109-.816-2.1881h-.0001-2.741l-.1756.2259-.312.4014c-.1892.2433-.4544.3731-.7627.3731-.3082 0-.5735-.1298-.7627-.3732l-.3119-.4013-.1756-.2259h-2.0136c-.1223 1.2772-.4415 2.1881-.816 2.1881-.4801 0-.8694-1.4975-.8694-3.3448s.3893-3.3448.8694-3.3448z"/></g></svg>