<svg clip-rule="evenodd" fill-rule="evenodd" stroke-linejoin="round" stroke-miterlimit="2" viewBox="0 0 32 32" xmlns="http://www.w3.org/2000/svg"><g transform="translate(-144)"><path d="m159 3v26c0 .552.448 1 1 1s1-.448 1-1v-26c0-.552-.448-1-1-1s-1 .448-1 1zm-2 2h-8c-.796 0-1.559.316-2.121.879-.563.562-.879 1.325-.879 2.121v16c0 .796.316 1.559.879 2.121.562.563 1.325.879 2.121.879h8zm6 0v22h8c.796 0 1.559-.316 2.121-.879.563-.562.879-1.325.879-2.121v-16c0-.796-.316-1.559-.879-2.121-.562-.563-1.325-.879-2.121-.879z"/></g></svg>